<svg version="1.1" id="Layer_1" xmlns="http://www.w3.org/2000/svg" xmlns:xlink="http://www.w3.org/1999/xlink" x="0px" y="0px"
	 width="100%" viewBox="0 0 240 180" enable-background="new 0 0 240 180" xml:space="preserve">
<path fill="#FFFFFF" opacity="1.000000" stroke="none" 
	d="
M142.000000,181.000000 
	C94.666672,181.000000 47.833340,181.000000 1.000006,181.000000 
	C1.000004,121.000008 1.000004,61.000011 1.000002,1.000014 
	C80.999992,1.000010 160.999985,1.000010 240.999969,1.000005 
	C240.999985,60.999985 240.999985,120.999969 241.000000,180.999969 
	C208.166672,181.000000 175.333328,181.000000 142.000000,181.000000 
M93.738869,95.678780 
	C93.738869,95.678780 93.660789,95.701080 93.005592,95.792511 
	C92.629951,96.481209 92.254311,97.169907 91.520348,98.512115 
	C90.600037,99.329063 89.679733,100.146011 88.759422,100.962959 
	C89.047836,101.279556 89.336250,101.596153 89.624657,101.912750 
	C91.032845,100.822418 92.441025,99.732086 94.401886,98.319321 
	C95.309044,97.266533 96.216202,96.213745 97.863647,95.097481 
	C100.864876,93.783417 103.866104,92.469353 106.867332,91.155296 
	C106.614304,90.610573 106.361275,90.065842 106.108246,89.521118 
	C102.656357,91.213898 99.204468,92.906685 95.758339,94.646141 
	C95.758339,94.646141 95.750961,94.692368 95.173927,94.696541 
	C94.720177,95.012672 94.266426,95.328804 93.738869,95.678780 
M125.951904,78.998077 
	C125.951904,78.998077 125.906998,79.113220 125.792908,78.506325 
	C124.868279,78.260948 123.943649,78.015579 122.405983,77.808830 
	C122.002075,77.752579 121.598175,77.696327 121.045731,77.034668 
	C119.499191,76.776703 117.773056,75.955948 116.444160,76.380013 
	C113.820168,77.217346 111.416145,78.743965 109.051781,79.327286 
	C108.680908,78.538147 108.310036,77.749008 108.704872,77.047981 
	C110.047707,76.815285 111.390549,76.582588 112.214706,76.439766 
	C107.603615,68.780060 103.214272,61.488705 98.824928,54.197346 
	C98.842293,56.690666 100.027191,58.577614 100.823647,60.616306 
	C103.001869,66.191933 108.201401,70.440994 107.275436,76.994408 
	C103.417664,75.308777 99.559898,73.623138 95.702126,71.937500 
	C95.487137,72.399750 95.272156,72.862000 95.057167,73.324249 
	C99.699821,75.523872 104.342476,77.723495 108.990295,80.703773 
	C108.517632,84.808372 105.906395,89.349953 111.529114,92.449928 
	C111.529114,92.449928 111.718918,92.645210 111.850838,93.273270 
	C111.956635,93.931953 112.062424,94.590637 111.698761,95.830688 
	C109.963112,96.546158 108.190948,97.184967 106.498352,97.990868 
	C100.328079,100.928734 94.184372,103.922401 87.501053,107.150879 
	C87.286652,104.702034 87.212975,103.860580 87.139305,103.019127 
	C86.862549,102.954453 86.585793,102.889786 86.309036,102.825111 
	C85.788155,104.013885 85.267265,105.202660 84.557938,106.821480 
	C88.559990,106.821480 92.117943,107.645813 95.056244,106.647095 
	C100.883148,104.666565 106.368202,101.680283 112.040375,99.883492 
	C110.959053,103.947792 109.877731,108.012093 108.796402,112.076393 
	C109.094582,112.116997 109.392761,112.157593 109.690941,112.198196 
	C110.094353,111.714767 110.497765,111.231339 110.980057,111.431313 
	C111.069275,112.069534 111.158493,112.707748 111.442444,114.738960 
	C113.093124,109.996178 114.308617,106.503799 115.821617,102.156593 
	C116.356232,112.975113 116.847115,122.908791 117.337997,132.842468 
	C117.572502,132.837708 117.806999,132.832962 118.041504,132.828201 
	C118.041504,121.871536 118.041504,110.914871 118.906586,99.899414 
	C121.284508,99.495979 123.662437,99.092552 126.600922,99.128967 
	C129.148392,103.061264 131.695862,106.993553 134.243332,110.925850 
	C134.661774,110.679207 135.080200,110.432564 135.498642,110.185928 
	C132.923981,105.788124 130.349335,101.390327 128.426743,96.932808 
	C129.056000,96.488899 130.070694,96.157417 130.239349,95.579155 
	C130.676010,94.082092 130.739761,92.476250 131.031967,90.237526 
	C131.674210,89.780434 132.316452,89.323334 133.753143,88.993538 
	C139.635223,90.683105 145.517303,92.372673 151.399368,94.062241 
	C151.535263,93.593582 151.671158,93.124924 151.807037,92.656273 
	C146.253296,91.076385 140.699570,89.496498 135.479599,87.236908 
	C137.337402,86.113503 139.195206,84.990097 141.961212,83.976028 
	C150.032516,83.484131 158.103821,82.992241 166.175125,82.500343 
	C166.133179,81.982758 166.091232,81.465179 166.049286,80.947601 
	C158.971436,81.260994 151.893570,81.574387 145.117065,81.292320 
	C146.453659,80.205307 147.790253,79.118286 149.063370,77.991013 
	C149.063370,77.991013 149.049652,78.064575 149.797440,77.933090 
	C150.766190,77.188873 151.734940,76.444656 153.792023,74.864357 
	C151.596649,75.038681 150.838760,75.098862 149.265640,75.017952 
	C143.194839,76.688759 137.113464,78.323395 131.071106,80.091423 
	C130.522247,80.252014 130.224152,81.269669 129.313034,81.677696 
	C128.808319,81.520874 128.303604,81.364052 127.939156,81.048943 
	C127.939156,81.048943 127.771889,81.178383 127.886414,80.484329 
	C127.222038,80.026901 126.557655,79.569466 125.951904,78.998077 
M142.255386,63.140415 
	C141.045120,64.142998 139.834854,65.145576 138.624588,66.148155 
	C138.939240,66.501175 139.253891,66.854195 139.568527,67.207214 
	C140.907425,66.001045 142.246338,64.794868 144.079437,63.302078 
	C144.278931,62.964779 144.478439,62.627480 144.677933,62.290180 
	C144.087509,62.490257 143.497086,62.690334 142.255386,63.140415 
M126.261375,76.739120 
	C128.368759,75.642517 130.476135,74.545921 132.583527,73.449326 
	C132.377502,73.101097 132.171478,72.752869 131.965454,72.404640 
	C130.637711,72.609390 129.309982,72.814133 128.045532,72.302559 
	C131.737213,65.459488 135.428909,58.616425 139.120590,51.773357 
	C138.731094,51.565205 138.341614,51.357048 137.952118,51.148895 
	C133.368988,58.908730 128.771545,66.660339 124.286072,74.476219 
	C124.174812,74.670082 125.303261,75.575386 126.261375,76.739120 
M120.013840,64.446289 
	C119.640373,56.089409 119.266914,47.732529 118.893448,39.375645 
	C118.634651,39.418121 118.375854,39.460602 118.117058,39.503078 
	C118.117058,50.876194 118.117058,62.249313 118.117058,73.622429 
	C118.749329,73.614105 119.381607,73.605774 120.013878,73.597450 
	C120.013878,70.872742 120.013878,68.148033 120.013840,64.446289 
M87.232849,82.972565 
	C82.533913,83.208099 77.834976,83.443642 73.136040,83.679176 
	C73.168869,84.180885 73.201691,84.682587 73.234520,85.184288 
	C84.178513,84.696648 95.122498,84.209007 106.066490,83.721367 
	C100.148216,81.174416 94.163429,81.900444 87.232849,82.972565 
M144.119766,72.644356 
	C148.167480,71.297180 152.215195,69.950005 156.262909,68.602829 
	C156.392441,68.912903 156.521973,69.222969 156.651505,69.533043 
	C155.273636,71.149437 153.895752,72.765839 152.517883,74.382233 
	C152.864319,74.696213 153.210754,75.010201 153.557175,75.324181 
	C154.977600,73.903503 156.717896,72.661713 157.661530,70.974388 
	C158.040695,70.296410 156.544098,67.542702 156.115799,67.592155 
	C148.294724,68.495193 141.066437,71.130554 134.307999,74.939575 
	C134.468719,75.367325 134.629425,75.795082 134.790146,76.222832 
	C137.665573,75.144386 140.541016,74.065941 144.119766,72.644356 
M91.491943,88.957428 
	C89.581932,89.413254 87.671928,89.869087 85.761917,90.324913 
	C85.844727,90.691711 85.927528,91.058510 86.010338,91.425308 
	C92.533539,90.354172 99.056732,89.283035 105.579933,88.211899 
	C105.486511,87.661934 105.393082,87.111969 105.299660,86.562004 
	C100.976387,87.330017 96.653114,88.098022 91.491943,88.957428 
M134.701065,71.232452 
	C135.958023,70.125961 137.214996,69.019478 138.471954,67.912987 
	C138.178085,67.550415 137.884232,67.187851 137.590363,66.825279 
	C136.086243,68.070091 134.582123,69.314896 133.078003,70.559708 
	C133.410843,70.912605 133.743698,71.265503 134.701065,71.232452 
M135.503769,112.475784 
	C135.503769,112.475784 135.479401,112.512146 135.503769,112.475784 
z"/>
<path fill="#8872CB" opacity="1.000000" stroke="none" 
	d="
M121.194267,77.640076 
	C121.598175,77.696327 122.002075,77.752579 122.855392,78.109528 
	C124.172195,78.644554 125.039597,78.878883 125.906998,79.113220 
	C125.906998,79.113220 125.951904,78.998077 125.944336,79.369362 
	C126.548477,80.219887 127.160187,80.699135 127.771889,81.178383 
	C127.771889,81.178383 127.939156,81.048943 127.864838,81.513962 
	C128.195435,84.041473 128.600342,86.103951 128.809891,88.442444 
	C124.929619,90.486122 121.244713,92.253799 117.161125,93.966965 
	C115.081268,93.490044 113.400093,93.067627 111.718918,92.645210 
	C111.718918,92.645210 111.529114,92.449928 111.659706,92.021065 
	C112.010468,90.654022 112.698997,89.114235 112.381317,88.866920 
	C106.620430,84.382004 112.248810,82.563347 114.570274,80.545273 
	C116.307381,79.035187 118.953117,78.570335 121.194267,77.640076 
z"/>
<path fill="#2C518D" opacity="1.000000" stroke="none" 
	d="
M117.559807,94.021484 
	C121.244713,92.253799 124.929619,90.486122 129.160736,88.366821 
	C130.508423,86.708252 131.309891,85.401299 132.496948,84.042877 
	C137.271118,82.010971 141.659714,80.030540 146.436035,78.021255 
	C147.591476,78.005363 148.359161,78.018318 149.126846,78.031273 
	C147.790253,79.118286 146.453659,80.205307 144.645691,81.615723 
	C143.133881,82.581650 142.093445,83.224174 141.053009,83.866699 
	C139.195206,84.990097 137.337402,86.113503 135.061920,87.551300 
	C134.082397,88.199211 133.520538,88.532722 132.958679,88.866241 
	C132.316452,89.323334 131.674210,89.780434 130.612823,90.641457 
	C125.117905,93.397034 120.042122,95.748688 114.871170,98.114899 
	C114.775986,98.129463 114.589592,98.177856 114.232864,98.168526 
	C113.248932,98.476021 112.621735,98.792839 111.994537,99.109673 
	C106.368202,101.680283 100.883148,104.666565 95.056244,106.647095 
	C92.117943,107.645813 88.559990,106.821480 84.557938,106.821480 
	C85.267265,105.202660 85.788155,104.013885 86.309036,102.825111 
	C86.585793,102.889786 86.862549,102.954453 87.139305,103.019127 
	C87.212975,103.860580 87.286652,104.702034 87.501053,107.150879 
	C94.184372,103.922401 100.328079,100.928734 106.498352,97.990868 
	C108.190948,97.184967 109.963112,96.546158 112.253525,95.554153 
	C114.392120,94.858910 115.975967,94.440193 117.559807,94.021484 
z"/>
<path fill="#ED94BB" opacity="1.000000" stroke="none" 
	d="
M114.589584,98.177856 
	C114.589592,98.177856 114.775986,98.129463 115.166885,98.197922 
	C116.385689,98.830315 117.213593,99.394257 118.041504,99.958199 
	C118.041504,110.914871 118.041504,121.871536 118.041504,132.828201 
	C117.806999,132.832962 117.572502,132.837708 117.337997,132.842468 
	C116.847115,122.908791 116.356232,112.975113 115.821617,102.156593 
	C114.308617,106.503799 113.093124,109.996178 111.442444,114.738960 
	C111.158493,112.707748 111.069275,112.069534 110.969910,110.715843 
	C112.169701,106.059532 113.379646,102.118690 114.589584,98.177856 
z"/>
<path fill="#D2C4E4" opacity="1.000000" stroke="none" 
	d="
M118.474045,99.928802 
	C117.213593,99.394257 116.385689,98.830315 115.262062,98.183350 
	C120.042122,95.748688 125.117905,93.397034 130.573029,90.979614 
	C130.739761,92.476250 130.676010,94.082092 130.239349,95.579155 
	C130.070694,96.157417 129.056000,96.488899 127.851845,96.880966 
	C126.864754,97.449127 126.452560,98.069122 126.040359,98.689117 
	C123.662437,99.092552 121.284508,99.495979 118.474045,99.928802 
z"/>
<path fill="#ED94BB" opacity="1.000000" stroke="none" 
	d="
M120.013855,64.934807 
	C120.013878,68.148033 120.013878,70.872742 120.013878,73.597450 
	C119.381607,73.605774 118.749329,73.614105 118.117058,73.622429 
	C118.117058,62.249313 118.117058,50.876194 118.117058,39.503078 
	C118.375854,39.460602 118.634651,39.418121 118.893448,39.375645 
	C119.266914,47.732529 119.640373,56.089409 120.013855,64.934807 
z"/>
<path fill="#ED94BB" opacity="1.000000" stroke="none" 
	d="
M87.701614,82.954803 
	C94.163429,81.900444 100.148216,81.174416 106.066490,83.721367 
	C95.122498,84.209007 84.178513,84.696648 73.234520,85.184288 
	C73.201691,84.682587 73.168869,84.180885 73.136040,83.679176 
	C77.834976,83.443642 82.533913,83.208099 87.701614,82.954803 
z"/>
<path fill="#D2C4E4" opacity="1.000000" stroke="none" 
	d="
M121.119995,77.337372 
	C118.953117,78.570335 116.307381,79.035187 114.570274,80.545273 
	C112.248810,82.563347 106.620430,84.382004 112.381317,88.866920 
	C112.698997,89.114235 112.010468,90.654022 111.569504,91.919067 
	C105.906395,89.349953 108.517632,84.808372 108.993439,80.351303 
	C108.996574,79.998825 108.921158,79.985558 108.921158,79.985558 
	C111.416145,78.743965 113.820168,77.217346 116.444160,76.380013 
	C117.773056,75.955948 119.499191,76.776703 121.119995,77.337372 
z"/>
<path fill="#2C518D" opacity="1.000000" stroke="none" 
	d="
M143.768097,72.815918 
	C140.541016,74.065941 137.665573,75.144386 134.790146,76.222832 
	C134.629425,75.795082 134.468719,75.367325 134.307999,74.939575 
	C141.066437,71.130554 148.294724,68.495193 156.115799,67.592155 
	C156.544098,67.542702 158.040695,70.296410 157.661530,70.974388 
	C156.717896,72.661713 154.977600,73.903503 153.557175,75.324181 
	C153.210754,75.010201 152.864319,74.696213 152.517883,74.382233 
	C153.895752,72.765839 155.273636,71.149437 156.651505,69.533043 
	C156.521973,69.222969 156.392441,68.912903 156.262909,68.602829 
	C152.215195,69.950005 148.167480,71.297180 143.768097,72.815918 
z"/>
<path fill="#48B3CE" opacity="1.000000" stroke="none" 
	d="
M125.853516,76.148865 
	C125.303261,75.575386 124.174812,74.670082 124.286072,74.476219 
	C128.771545,66.660339 133.368988,58.908730 137.952118,51.148895 
	C138.341614,51.357048 138.731094,51.565205 139.120590,51.773357 
	C135.428909,58.616425 131.737213,65.459488 128.030762,72.651321 
	C128.016006,73.000092 128.013016,72.960060 127.722183,73.079620 
	C127.308708,73.787827 127.186073,74.376472 126.933578,75.226593 
	C126.486984,75.708344 126.170250,75.928604 125.853516,76.148865 
z"/>
<path fill="#8872CB" opacity="1.000000" stroke="none" 
	d="
M108.032448,77.036827 
	C108.201401,70.440994 103.001869,66.191933 100.823647,60.616306 
	C100.027191,58.577614 98.842293,56.690666 98.824928,54.197346 
	C103.214272,61.488705 107.603615,68.780060 112.214706,76.439766 
	C111.390549,76.582588 110.047707,76.815285 108.346664,77.021744 
	C107.988464,76.995499 108.032448,77.036827 108.032448,77.036827 
z"/>
<path fill="#ED94BB" opacity="1.000000" stroke="none" 
	d="
M141.507111,83.921364 
	C142.093445,83.224174 143.133881,82.581650 144.495026,81.913460 
	C151.893570,81.574387 158.971436,81.260994 166.049286,80.947601 
	C166.091232,81.465179 166.133179,81.982758 166.175125,82.500343 
	C158.103821,82.992241 150.032516,83.484131 141.507111,83.921364 
z"/>
<path fill="#48B3CE" opacity="1.000000" stroke="none" 
	d="
M149.095108,78.011139 
	C148.359161,78.018318 147.591476,78.005363 146.174820,77.859322 
	C140.699524,79.530983 135.873199,81.335716 130.778275,83.002075 
	C130.276321,82.538902 130.042953,82.214104 129.809601,81.889313 
	C130.224152,81.269669 130.522247,80.252014 131.071106,80.091423 
	C137.113464,78.323395 143.194839,76.688759 149.499695,75.369431 
	C149.505707,76.502129 149.277679,77.283348 149.049652,78.064575 
	C149.049652,78.064575 149.063370,77.991013 149.095108,78.011139 
z"/>
<path fill="#8872CB" opacity="1.000000" stroke="none" 
	d="
M91.910889,88.911728 
	C96.653114,88.098022 100.976387,87.330017 105.299660,86.562004 
	C105.393082,87.111969 105.486511,87.661934 105.579933,88.211899 
	C99.056732,89.283035 92.533539,90.354172 86.010338,91.425308 
	C85.927528,91.058510 85.844727,90.691711 85.761917,90.324913 
	C87.671928,89.869087 89.581932,89.413254 91.910889,88.911728 
z"/>
<path fill="#8872CB" opacity="1.000000" stroke="none" 
	d="
M126.320641,98.909042 
	C126.452560,98.069122 126.864754,97.449127 127.525810,96.910828 
	C130.349335,101.390327 132.923981,105.788124 135.498642,110.185928 
	C135.080200,110.432564 134.661774,110.679207 134.243332,110.925850 
	C131.695862,106.993553 129.148392,103.061264 126.320641,98.909042 
z"/>
<path fill="#8872CB" opacity="1.000000" stroke="none" 
	d="
M108.990852,79.960968 
	C104.342476,77.723495 99.699821,75.523872 95.057167,73.324249 
	C95.272156,72.862000 95.487137,72.399750 95.702126,71.937500 
	C99.559898,73.623138 103.417664,75.308777 107.653946,77.015617 
	C108.032448,77.036827 107.988464,76.995499 107.963821,76.977692 
	C108.310036,77.749008 108.680908,78.538147 108.986465,79.656418 
	C108.921158,79.985558 108.996574,79.998825 108.990852,79.960968 
z"/>
<path fill="#8872CB" opacity="1.000000" stroke="none" 
	d="
M133.355911,88.929886 
	C133.520538,88.532722 134.082397,88.199211 134.895050,87.891159 
	C140.699570,89.496498 146.253296,91.076385 151.807037,92.656273 
	C151.671158,93.124924 151.535263,93.593582 151.399368,94.062241 
	C145.517303,92.372673 139.635223,90.683105 133.355911,88.929886 
z"/>
<path fill="#48B3CE" opacity="1.000000" stroke="none" 
	d="
M114.232857,98.168526 
	C113.379646,102.118690 112.169701,106.059532 110.930473,110.374138 
	C110.497765,111.231339 110.094353,111.714767 109.690941,112.198196 
	C109.392761,112.157593 109.094582,112.116997 108.796402,112.076393 
	C109.877731,108.012093 110.959053,103.947792 112.017456,99.496582 
	C112.621735,98.792839 113.248932,98.476021 114.232857,98.168526 
z"/>
<path fill="#48B3CE" opacity="1.000000" stroke="none" 
	d="
M95.752579,94.599464 
	C99.204468,92.906685 102.656357,91.213898 106.108246,89.521118 
	C106.361275,90.065842 106.614304,90.610573 106.867332,91.155296 
	C103.866104,92.469353 100.864876,93.783417 97.140381,95.014481 
	C96.195602,94.820808 95.974091,94.710136 95.752579,94.599464 
z"/>
<path fill="#D2C4E4" opacity="1.000000" stroke="none" 
	d="
M129.561310,81.783508 
	C130.042953,82.214104 130.276321,82.538902 130.887146,83.225800 
	C131.502472,83.830956 131.784714,83.999771 132.111374,84.094345 
	C131.309891,85.401299 130.508423,86.708252 129.356094,88.090820 
	C128.600342,86.103951 128.195435,84.041473 127.794708,81.593109 
	C128.303604,81.364052 128.808319,81.520874 129.561310,81.783508 
z"/>
<path fill="#8872CB" opacity="1.000000" stroke="none" 
	d="
M126.057449,76.443993 
	C126.170250,75.928604 126.486984,75.708344 127.276077,75.109856 
	C127.836624,74.141113 127.924820,73.550583 128.013016,72.960060 
	C128.013016,72.960060 128.016006,73.000092 127.999123,73.009483 
	C129.309982,72.814133 130.637711,72.609390 131.965454,72.404640 
	C132.171478,72.752869 132.377502,73.101097 132.583527,73.449326 
	C130.476135,74.545921 128.368759,75.642517 126.057449,76.443993 
z"/>
<path fill="#8872CB" opacity="1.000000" stroke="none" 
	d="
M134.388809,71.425430 
	C133.743698,71.265503 133.410843,70.912605 133.078003,70.559708 
	C134.582123,69.314896 136.086243,68.070091 137.590363,66.825279 
	C137.884232,67.187851 138.178085,67.550415 138.471954,67.912987 
	C137.214996,69.019478 135.958023,70.125961 134.388809,71.425430 
z"/>
<path fill="#D2C4E4" opacity="1.000000" stroke="none" 
	d="
M117.161125,93.966972 
	C115.975967,94.440193 114.392120,94.858910 112.488251,95.263474 
	C112.062424,94.590637 111.956635,93.931953 111.784882,92.959244 
	C113.400093,93.067627 115.081268,93.490044 117.161125,93.966972 
z"/>
<path fill="#8872CB" opacity="1.000000" stroke="none" 
	d="
M143.585236,63.588699 
	C142.246338,64.794868 140.907425,66.001045 139.568527,67.207214 
	C139.253891,66.854195 138.939240,66.501175 138.624588,66.148155 
	C139.834854,65.145576 141.045120,64.142998 142.738831,63.201477 
	C143.222290,63.262539 143.585236,63.588699 143.585236,63.588699 
z"/>
<path fill="#2C518D" opacity="1.000000" stroke="none" 
	d="
M93.849205,98.641754 
	C92.441025,99.732086 91.032845,100.822418 89.624657,101.912750 
	C89.336250,101.596153 89.047836,101.279556 88.759422,100.962959 
	C89.679733,100.146011 90.600037,99.329063 91.953278,98.221741 
	C92.555901,97.911148 92.725609,97.890930 93.122826,98.077019 
	C93.516624,98.402802 93.682915,98.522278 93.849205,98.641754 
z"/>
<path fill="#2C518D" opacity="1.000000" stroke="none" 
	d="
M149.423553,77.998833 
	C149.277679,77.283348 149.505707,76.502129 149.907318,75.439972 
	C150.838760,75.098862 151.596649,75.038681 153.792023,74.864357 
	C151.734940,76.444656 150.766190,77.188873 149.423553,77.998833 
z"/>
<path fill="#2C518D" opacity="1.000000" stroke="none" 
	d="
M95.755463,94.622803 
	C95.974091,94.710136 96.195602,94.820808 96.770233,95.046219 
	C96.216202,96.213745 95.309044,97.266533 94.125549,98.480537 
	C93.682915,98.522278 93.516624,98.402802 93.264679,97.809341 
	C93.339615,96.790596 93.500198,96.245834 93.660782,95.701080 
	C93.660789,95.701080 93.738869,95.678780 94.102219,95.776245 
	C94.894028,95.479927 95.322495,95.086151 95.750961,94.692368 
	C95.750961,94.692368 95.758339,94.646141 95.755463,94.622803 
z"/>
<path fill="#D2C4E4" opacity="1.000000" stroke="none" 
	d="
M125.849953,78.809769 
	C125.039597,78.878883 124.172195,78.644554 123.161911,78.090210 
	C123.943649,78.015579 124.868279,78.260948 125.849953,78.809769 
z"/>
<path fill="#D2C4E4" opacity="1.000000" stroke="none" 
	d="
M127.829147,80.831360 
	C127.160187,80.699135 126.548477,80.219887 125.915024,79.426338 
	C126.557655,79.569466 127.222038,80.026901 127.829147,80.831360 
z"/>
<path fill="#48B3CE" opacity="1.000000" stroke="none" 
	d="
M93.333191,95.746796 
	C93.500198,96.245834 93.339615,96.790596 93.037170,97.603027 
	C92.725609,97.890930 92.555901,97.911148 92.132431,97.894989 
	C92.254311,97.169907 92.629951,96.481209 93.333191,95.746796 
z"/>
<path fill="#48B3CE" opacity="1.000000" stroke="none" 
	d="
M95.462448,94.694458 
	C95.322495,95.086151 94.894028,95.479927 94.139114,95.759315 
	C94.266426,95.328804 94.720177,95.012672 95.462448,94.694458 
z"/>
<path fill="#8872CB" opacity="1.000000" stroke="none" 
	d="
M143.064484,63.076477 
	C143.497086,62.690334 144.087509,62.490257 144.677948,62.290176 
	C144.478439,62.627480 144.278931,62.964779 143.832336,63.445389 
	C143.585236,63.588699 143.222290,63.262539 143.064484,63.076477 
z"/>
<path fill="#8872CB" opacity="1.000000" stroke="none" 
	d="
M135.491577,112.493965 
	C135.479401,112.512146 135.503769,112.475784 135.491577,112.493965 
z"/>
<path fill="#FFFFFF" opacity="1.000000" stroke="none" 
	d="
M132.496948,84.042877 
	C131.784714,83.999771 131.502472,83.830956 131.155762,83.364182 
	C135.873199,81.335716 140.699524,79.530983 145.787079,77.888176 
	C141.659714,80.030540 137.271118,82.010971 132.496948,84.042877 
z"/>
<path fill="#FFFFFF" opacity="1.000000" stroke="none" 
	d="
M127.722183,73.079620 
	C127.924820,73.550583 127.836624,74.141113 127.405930,74.848373 
	C127.186073,74.376472 127.308708,73.787827 127.722183,73.079620 
z"/>
</svg>