<svg version="1.1" id="Layer_1" xmlns="http://www.w3.org/2000/svg" xmlns:xlink="http://www.w3.org/1999/xlink" x="0px" y="0px"
	 width="100%" viewBox="0 0 320 240" enable-background="new 0 0 320 240" xml:space="preserve">
<path fill="#FFFFFF" opacity="1.000000" stroke="none" 
	d="
M194.000000,241.000000 
	C129.333344,241.000000 65.166679,241.000000 1.000017,241.000000 
	C1.000011,161.000015 1.000011,81.000038 1.000006,1.000039 
	C107.666634,1.000026 214.333267,1.000026 320.999939,1.000013 
	C320.999939,80.999962 320.999939,160.999924 320.999969,240.999939 
	C278.833344,241.000000 236.666672,241.000000 194.000000,241.000000 
M221.258377,93.037910 
	C220.571548,93.634628 219.884735,94.231339 219.197922,94.828056 
	C219.373978,95.030937 219.550049,95.233818 219.726105,95.436699 
	C220.624649,94.801804 221.523209,94.166901 222.955673,93.261269 
	C223.536011,92.711555 224.116348,92.161842 224.696686,91.612137 
	C224.500793,91.404907 224.304901,91.197685 224.109024,90.990463 
	C223.380859,91.631126 222.652695,92.271797 221.258377,93.037910 
M215.120300,113.385010 
	C216.718674,112.569031 218.317032,111.753052 220.792542,111.007843 
	C223.952957,110.580795 225.284729,111.757416 225.074722,115.126389 
	C224.812088,119.339615 225.011581,123.581650 225.011581,128.188766 
	C227.153198,127.921570 229.088669,127.680099 231.806793,126.942429 
	C231.839020,118.653137 231.871231,110.363846 232.551132,102.025230 
	C232.981506,101.977150 233.411865,101.929070 234.576126,101.710815 
	C236.575974,102.244713 239.523880,102.196953 240.308762,103.476250 
	C241.092377,104.753464 239.709854,107.359642 239.545273,108.128983 
	C240.538849,110.037781 241.805298,111.391640 241.878906,112.807526 
	C242.135071,117.734802 241.977905,122.683578 241.977905,128.336746 
	C244.048325,127.834175 245.984940,127.364090 247.991882,125.971359 
	C247.994553,119.472900 248.134506,112.969704 247.910294,106.479088 
	C247.848709,104.695877 246.698074,102.950287 245.898392,100.810539 
	C245.898392,100.810539 245.533386,100.634583 245.578415,100.590393 
	C245.578415,100.590393 245.517029,100.502167 244.697647,100.194870 
	C241.427460,99.775368 238.157257,99.355873 234.869904,98.141151 
	C233.065079,97.784058 231.033707,96.712555 229.496674,97.199951 
	C224.276535,98.855255 219.231018,101.061317 213.519592,103.483620 
	C213.616043,106.275665 209.139938,109.879868 214.509491,111.975456 
	C214.293976,112.269371 214.078476,112.563286 213.140518,112.947525 
	C210.903854,114.108414 208.667206,115.269302 206.430542,116.430199 
	C206.623108,116.812279 206.815689,117.194366 207.008255,117.576454 
	C209.535812,116.320793 212.063385,115.065140 215.120300,113.385010 
M208.265244,103.654312 
	C210.430237,104.965164 210.430237,104.965164 212.399658,100.949234 
	C211.256042,101.307388 210.112427,101.665550 208.906189,101.289085 
	C212.002701,95.447632 215.099228,89.606186 218.195740,83.764740 
	C217.815582,83.563957 217.435410,83.363174 217.055252,83.162392 
	C213.330017,89.809441 209.604797,96.456490 205.295151,104.146301 
	C207.126724,103.350464 207.570786,103.157516 208.265244,103.654312 
M33.792461,87.365547 
	C33.799751,86.956161 33.807041,86.546783 34.001560,85.434906 
	C34.935963,84.708138 35.870365,83.981369 36.841896,83.225723 
	C31.804014,83.225723 26.941887,83.225723 23.417850,83.225723 
	C24.234253,85.068398 25.835121,87.045410 25.881218,89.058044 
	C26.132423,100.025658 25.880430,111.004181 26.074923,121.974098 
	C26.132547,125.224297 25.693804,127.477783 21.955202,127.750168 
	C26.952162,127.750168 31.949121,127.750168 36.800110,127.750168 
	C35.513260,126.844986 34.269581,125.970169 33.588428,124.825066 
	C33.644295,124.229111 33.700165,123.633148 33.936058,122.109718 
	C33.857735,110.731293 33.779411,99.352859 33.792461,87.365547 
M201.813278,119.813400 
	C202.439850,118.358955 203.096817,116.916733 203.687500,115.447845 
	C205.706833,110.426170 205.036041,109.388420 199.484436,108.778900 
	C196.008942,112.515526 198.424377,115.823723 199.749908,119.767349 
	C193.851624,122.134033 187.953339,124.500717 182.055054,126.867401 
	C182.253662,127.407135 182.452271,127.946877 182.650879,128.486618 
	C186.870728,127.045052 191.090561,125.603493 195.592636,124.689819 
	C195.275330,127.887657 194.958023,131.085495 194.640717,134.283325 
	C195.036438,134.336502 195.432175,134.389679 195.827911,134.442841 
	C196.726593,131.915085 197.625259,129.387329 198.523941,126.859566 
	C198.808960,126.892044 199.093979,126.924515 199.378998,126.956985 
	C199.378998,133.726929 199.378998,140.496872 199.378998,147.266815 
	C199.900131,147.263153 200.421280,147.259491 200.942413,147.255829 
	C200.942413,139.763809 201.009705,132.270035 200.812180,124.783226 
	C200.796707,124.196754 198.933212,123.659035 198.092148,122.434769 
	C199.100861,121.614151 200.109573,120.793541 201.813278,119.813400 
M164.015930,126.058655 
	C164.016815,113.465164 164.104675,100.870491 163.932175,88.279373 
	C163.903748,86.203491 162.733871,84.143242 161.371368,82.297661 
	C158.785080,83.124695 156.198792,83.951721 154.849197,84.383286 
	C155.611618,86.958328 156.853775,89.292366 156.905914,91.652687 
	C157.128906,101.748619 157.037735,111.852554 156.969101,121.952950 
	C156.955734,123.919685 156.532104,125.883636 156.223297,128.472763 
	C158.912674,127.959709 161.442825,127.477028 164.015930,126.058655 
M304.993683,126.041298 
	C304.995758,112.724747 305.026825,99.408028 304.945099,86.091988 
	C304.938538,85.021507 304.155548,83.955788 302.942596,82.910263 
	C300.454376,83.444000 297.966125,83.977730 296.649109,84.260239 
	C297.530884,86.892723 298.851440,89.072845 298.899841,91.280853 
	C299.125641,101.578163 298.914032,111.884384 299.058075,122.184631 
	C299.095917,124.892036 298.649109,126.937996 295.634033,128.092484 
	C295.794922,128.107498 295.955780,128.122498 297.006226,128.168915 
	C300.584106,128.168915 304.161957,128.168915 307.739838,128.168915 
	C307.737701,127.874458 307.735535,127.580002 307.733368,127.285553 
	C306.801666,127.181389 305.869934,127.077232 304.993683,126.041298 
M178.994339,126.170982 
	C178.996185,120.016075 178.998901,113.861176 178.999649,107.706268 
	C179.000565,100.105789 179.048096,92.504578 178.932861,84.905846 
	C178.919876,84.049782 180.253586,80.786919 176.129715,82.944000 
	C173.669022,83.531914 171.208328,84.119820 169.210159,84.597229 
	C170.271408,86.304871 171.873550,87.692055 171.895004,89.103271 
	C172.090057,101.935081 172.009430,114.771095 172.009430,127.881355 
	C173.343048,128.248886 174.980774,128.508896 176.441010,129.164307 
	C177.572037,129.671982 178.481064,130.674240 179.488785,131.456635 
	C179.868927,131.384262 180.249084,131.311890 180.629227,131.239517 
	C180.067673,129.818359 179.506104,128.397217 178.994339,126.170982 
M287.348663,99.302475 
	C284.885345,100.108727 282.421997,100.914970 280.173309,101.650963 
	C283.272400,103.047333 284.638519,118.381264 282.313232,126.054794 
	C279.651154,126.381760 277.288116,126.671989 274.951660,126.114594 
	C274.634399,121.387215 274.363953,116.656059 273.982910,111.933830 
	C273.742188,108.950127 273.336365,105.979736 272.718597,102.330856 
	C269.375275,97.889244 264.958496,98.630081 259.103577,99.693298 
	C267.136169,100.271530 269.163361,104.008293 267.442627,112.162163 
	C264.050140,113.547684 260.704712,114.579750 257.698151,116.229347 
	C254.205215,118.145798 253.303757,121.589638 254.273575,125.274124 
	C255.241776,128.952499 258.425934,129.429749 261.480286,128.917175 
	C265.369934,128.264450 269.013763,128.229980 273.037598,128.683090 
	C279.656677,129.428436 286.494354,128.232239 294.682831,127.773804 
	C292.266266,127.371178 291.135406,127.182762 290.058258,126.059532 
	C290.060425,118.180183 290.142822,110.299133 289.975098,102.423401 
	C289.950958,101.289352 288.722900,100.180931 287.348663,99.302475 
M148.076630,122.855255 
	C145.818634,126.739853 142.328735,128.050079 138.322968,126.484734 
	C134.037048,124.809921 132.049454,116.638908 133.888229,108.786697 
	C139.368088,108.786697 145.038742,108.786697 150.821594,108.786697 
	C149.438156,101.871300 142.756607,97.721992 136.551987,99.282532 
	C130.845535,100.717773 126.382706,106.475822 126.004410,112.891251 
	C125.597122,119.798553 129.557755,126.498024 135.251724,128.533112 
	C140.116562,130.271881 146.579330,128.916779 148.907227,125.406525 
	C149.339203,124.755150 148.619080,123.339752 148.076630,122.855255 
M109.941940,102.308098 
	C110.219513,109.436638 110.452736,116.567307 110.796089,123.692680 
	C110.937065,126.618233 112.021454,128.947083 115.481407,128.978485 
	C119.278427,129.012955 123.342216,129.597366 126.064026,124.125679 
	C123.015953,125.401237 120.923531,126.276871 117.787796,127.589111 
	C117.787796,118.199371 117.787796,109.869614 117.787796,101.302063 
	C119.803520,101.117630 121.945984,100.921600 124.088448,100.725571 
	C124.079132,100.545158 124.069809,100.364746 124.060493,100.184334 
	C121.952576,100.047409 119.844658,99.910492 117.573067,99.762939 
	C117.143745,98.118973 116.751236,96.615967 116.204636,94.522888 
	C112.842232,96.798355 109.946922,98.757729 107.078331,100.699020 
	C107.830139,100.967339 108.713615,101.282646 109.941940,102.308098 
M94.789894,110.832443 
	C92.889595,109.053452 90.516228,107.528328 89.350121,105.355347 
	C88.951469,104.612488 92.123573,100.671150 92.736855,100.882469 
	C95.925972,101.981400 98.815720,103.949120 102.094742,105.772858 
	C102.173668,104.012718 102.294426,101.319710 102.395218,99.071968 
	C99.819969,99.220016 97.784721,99.690247 95.878471,99.376595 
	C91.225151,98.610916 87.217224,100.633690 85.509102,105.018867 
	C84.113487,108.601761 85.931908,112.772491 90.021072,114.955353 
	C91.765312,115.886436 94.086136,116.065903 95.428825,117.341003 
	C97.277779,119.096863 99.117996,121.430702 99.600685,123.794868 
	C99.813263,124.836021 96.401497,127.938972 95.115364,127.683998 
	C92.583588,127.182076 90.229279,125.177261 88.119827,123.413498 
	C87.091690,122.553856 86.779305,120.838181 86.142921,119.509995 
	C85.862259,119.625847 85.581589,119.741707 85.300926,119.857559 
	C85.300926,122.719887 85.300926,125.582222 85.300926,127.849236 
	C87.688301,128.181213 89.642677,128.263229 91.493286,128.744354 
	C98.212883,130.491364 104.120529,127.056046 104.883064,120.606400 
	C105.694344,113.744530 99.053185,113.817833 94.789894,110.832443 
M44.999535,115.473892 
	C44.999870,117.964027 45.079990,120.457359 44.980495,122.943497 
	C44.853931,126.106056 45.544605,128.514755 49.254025,128.994247 
	C54.862114,129.719162 57.713993,128.544678 59.141144,124.484833 
	C56.983181,125.442070 55.009880,126.317398 52.578403,127.395958 
	C49.771038,118.369316 51.366535,109.880196 51.170307,101.330818 
	C53.845135,101.094940 55.961807,100.908279 58.078480,100.721626 
	C58.066597,100.545143 58.054714,100.368660 58.042831,100.192169 
	C55.936913,100.051056 53.830990,99.909935 51.574226,99.758713 
	C51.140110,98.123436 50.742172,96.624451 50.302853,94.969582 
	C46.988075,97.023071 44.029373,98.855972 40.067181,101.310539 
	C45.174442,99.921288 45.096466,102.659203 45.017635,105.524628 
	C44.935490,108.510521 44.999451,111.500435 44.999535,115.473892 
M202.012482,96.337471 
	C201.753662,87.268288 201.494843,78.199104 201.236023,69.129921 
	C201.042252,69.144363 200.848480,69.158813 200.654709,69.173256 
	C200.654709,80.298744 200.654709,91.424240 200.654709,103.474121 
	C201.516693,102.257851 201.839111,102.010948 201.855804,101.744858 
	C201.949081,100.258766 201.968384,98.768028 202.012482,96.337471 
M255.117096,102.744461 
	C254.756195,104.142990 254.027512,105.575935 254.154129,106.928841 
	C254.250458,107.958015 255.282410,109.490578 256.169495,109.712013 
	C257.404755,110.020370 258.985718,109.500275 260.203278,108.898689 
	C260.478760,108.762573 259.883118,106.829750 259.660645,105.729599 
	C259.471497,104.794456 259.542023,103.454132 258.961151,103.032806 
	C258.070038,102.386467 256.718506,102.374954 255.117096,102.744461 
M193.961456,101.697960 
	C191.238724,97.236794 188.515976,92.775627 185.793228,88.314461 
	C187.422699,93.705124 189.614182,98.734993 191.974808,103.684181 
	C192.266342,104.295433 193.459015,104.476883 194.234085,104.857498 
	C194.225311,104.041985 194.216537,103.226479 193.961456,101.697960 
M288.091827,85.731544 
	C286.409485,85.654686 284.718628,85.484833 283.057098,85.636314 
	C282.879364,85.652527 282.504242,88.261002 282.850494,88.438538 
	C284.295105,89.179222 285.969208,89.614120 287.588959,89.724564 
	C287.844116,89.741966 288.252533,87.511620 288.091827,85.731544 
M216.050491,98.635643 
	C216.972855,97.904579 217.895203,97.173523 218.817566,96.442459 
	C218.433899,96.137703 218.050217,95.832939 217.666550,95.528183 
	C216.915024,96.682564 216.163498,97.836952 216.050491,98.635643 
M153.397720,128.472107 
	C153.397720,128.472107 153.571289,128.570511 153.571289,128.570511 
	C153.571289,128.570511 153.546478,128.378754 153.397720,128.472107 
z"/>
<path fill="#D4B7EB" opacity="1.000000" stroke="none" 
	d="
M274.925110,126.962227 
	C277.288116,126.671989 279.651154,126.381760 282.313232,126.054794 
	C284.638519,118.381264 283.272400,103.047333 280.173309,101.650963 
	C282.421997,100.914970 284.885345,100.108727 287.684937,99.648270 
	C288.066010,107.301804 287.998962,114.613213 288.238495,121.914558 
	C288.294617,123.625290 289.388245,125.301987 290.004547,126.994339 
	C291.135406,127.182762 292.266266,127.371178 294.682831,127.773804 
	C286.494354,128.232239 279.656677,129.428436 273.037598,128.683090 
	C269.013763,128.229980 265.369934,128.264450 261.480286,128.917175 
	C258.425934,129.429749 255.241776,128.952499 254.273575,125.274124 
	C253.303757,121.589638 254.205215,118.145798 257.698151,116.229347 
	C260.704712,114.579750 264.050140,113.547684 267.442627,112.162163 
	C269.163361,104.008293 267.136169,100.271530 259.103577,99.693298 
	C264.958496,98.630081 269.375275,97.889244 272.847961,103.135437 
	C272.986450,110.092148 272.870758,116.248756 273.092163,122.393234 
	C273.147736,123.936241 274.284973,125.440277 274.925110,126.962227 
M268.001587,116.879036 
	C267.825989,116.105804 267.879913,114.855537 267.435272,114.641617 
	C265.473114,113.697624 260.491150,117.024887 260.358948,119.893539 
	C260.267914,121.869308 261.592773,125.519234 262.618073,125.642220 
	C265.977112,126.045113 267.804565,123.589241 267.994568,120.161804 
	C268.039886,119.344002 268.003235,118.521645 268.001587,116.879036 
z"/>
<path fill="#D6B8ED" opacity="1.000000" stroke="none" 
	d="
M33.025902,125.095345 
	C34.269581,125.970169 35.513260,126.844986 36.800110,127.750168 
	C31.949121,127.750168 26.952162,127.750168 21.955202,127.750168 
	C25.693804,127.477783 26.132547,125.224297 26.074923,121.974098 
	C25.880430,111.004181 26.132423,100.025658 25.881218,89.058044 
	C25.835121,87.045410 24.234253,85.068398 23.417850,83.225723 
	C26.941887,83.225723 31.804014,83.225723 36.841896,83.225723 
	C35.870365,83.981369 34.935963,84.708138 33.523903,85.858047 
	C32.696236,87.126450 32.046864,87.969833 32.041546,88.817253 
	C31.972307,99.849846 31.966270,110.883202 32.038521,121.915741 
	C32.045475,122.977722 32.681763,124.035576 33.025902,125.095345 
z"/>
<path fill="#D6BAEC" opacity="1.000000" stroke="none" 
	d="
M178.944550,126.976059 
	C179.506104,128.397217 180.067673,129.818359 180.629227,131.239517 
	C180.249084,131.311890 179.868927,131.384262 179.488785,131.456635 
	C178.481064,130.674240 177.572037,129.671982 176.441010,129.164307 
	C174.980774,128.508896 173.343048,128.248886 172.009430,127.881355 
	C172.009430,114.771095 172.090057,101.935081 171.895004,89.103271 
	C171.873550,87.692055 170.271408,86.304871 169.210159,84.597229 
	C171.208328,84.119820 173.669022,83.531914 176.904114,83.170761 
	C177.785324,96.263428 177.859543,109.129791 178.038956,121.994682 
	C178.062164,123.659035 178.629333,125.315788 178.944550,126.976059 
z"/>
<path fill="#D6B8ED" opacity="1.000000" stroke="none" 
	d="
M148.253647,122.566116 
	C148.619080,123.339752 149.339203,124.755150 148.907227,125.406525 
	C146.579330,128.916779 140.116562,130.271881 135.251724,128.533112 
	C129.557755,126.498024 125.597122,119.798553 126.004410,112.891251 
	C126.382706,106.475822 130.845535,100.717773 136.551987,99.282532 
	C142.756607,97.721992 149.438156,101.871300 150.821594,108.786697 
	C145.038742,108.786697 139.368088,108.786697 133.888229,108.786697 
	C132.049454,116.638908 134.037048,124.809921 138.322968,126.484734 
	C142.328735,128.050079 145.818634,126.739853 148.253647,122.566116 
M139.498215,100.088875 
	C135.669617,101.224297 132.883057,102.990540 134.572525,107.630386 
	C138.117111,107.630386 141.318466,107.630386 146.336914,107.630386 
	C143.711426,104.416840 141.981720,102.299721 139.498215,100.088875 
z"/>
<path fill="#D6BAEC" opacity="1.000000" stroke="none" 
	d="
M109.769516,101.953026 
	C108.713615,101.282646 107.830139,100.967339 107.078331,100.699020 
	C109.946922,98.757729 112.842232,96.798355 116.204636,94.522888 
	C116.751236,96.615967 117.143745,98.118973 117.573067,99.762939 
	C119.844658,99.910492 121.952576,100.047409 124.060493,100.184334 
	C124.069809,100.364746 124.079132,100.545158 124.088448,100.725571 
	C121.945984,100.921600 119.803520,101.117630 117.787796,101.302063 
	C117.787796,109.869614 117.787796,118.199371 117.787796,127.589111 
	C120.923531,126.276871 123.015953,125.401237 126.064026,124.125679 
	C123.342216,129.597366 119.278427,129.012955 115.481407,128.978485 
	C112.021454,128.947083 110.937065,126.618233 110.796089,123.692680 
	C110.452736,116.567307 110.219513,109.436638 109.769516,101.953026 
z"/>
<path fill="#D4B7EB" opacity="1.000000" stroke="none" 
	d="
M95.176353,110.897751 
	C99.053185,113.817833 105.694344,113.744530 104.883064,120.606400 
	C104.120529,127.056046 98.212883,130.491364 91.493286,128.744354 
	C89.642677,128.263229 87.688301,128.181213 85.300926,127.849236 
	C85.300926,125.582222 85.300926,122.719887 85.300926,119.857559 
	C85.581589,119.741707 85.862259,119.625847 86.142921,119.509995 
	C86.779305,120.838181 87.091690,122.553856 88.119827,123.413498 
	C90.229279,125.177261 92.583588,127.182076 95.115364,127.683998 
	C96.401497,127.938972 99.813263,124.836021 99.600685,123.794868 
	C99.117996,121.430702 97.277779,119.096863 95.428825,117.341003 
	C94.086136,116.065903 91.765312,115.886436 90.021072,114.955353 
	C85.931908,112.772491 84.113487,108.601761 85.509102,105.018867 
	C87.217224,100.633690 91.225151,98.610916 95.878471,99.376595 
	C97.784721,99.690247 99.819969,99.220016 102.395218,99.071968 
	C102.294426,101.319710 102.173668,104.012718 102.094742,105.772858 
	C98.815720,103.949120 95.925972,101.981400 92.736855,100.882469 
	C92.123573,100.671150 88.951469,104.612488 89.350121,105.355347 
	C90.516228,107.528328 92.889595,109.053452 95.176353,110.897751 
z"/>
<path fill="#D6B8ED" opacity="1.000000" stroke="none" 
	d="
M295.885956,127.905495 
	C298.649109,126.937996 299.095917,124.892036 299.058075,122.184631 
	C298.914032,111.884384 299.125641,101.578163 298.899841,91.280853 
	C298.851440,89.072845 297.530884,86.892723 296.649109,84.260239 
	C297.966125,83.977730 300.454376,83.444000 303.451874,83.365768 
	C303.974091,96.707336 303.956573,109.593590 304.041107,122.479179 
	C304.050964,123.979034 304.625488,125.475189 304.938232,126.973068 
	C305.869934,127.077232 306.801666,127.181389 307.733368,127.285553 
	C307.735535,127.580002 307.737701,127.874458 307.739838,128.168915 
	C304.161957,128.168915 300.584106,128.168915 296.506287,128.092712 
	C296.006317,128.016525 295.885956,127.905495 295.885956,127.905495 
z"/>
<path fill="#D6B8ED" opacity="1.000000" stroke="none" 
	d="
M163.972977,126.994354 
	C161.442825,127.477028 158.912674,127.959709 156.223297,128.472763 
	C156.532104,125.883636 156.955734,123.919685 156.969101,121.952950 
	C157.037735,111.852554 157.128906,101.748619 156.905914,91.652687 
	C156.853775,89.292366 155.611618,86.958328 154.849197,84.383286 
	C156.198792,83.951721 158.785080,83.124695 161.682068,82.647705 
	C161.998993,96.266388 161.946793,109.535698 162.097290,122.802696 
	C162.113220,124.206833 163.319138,125.597458 163.972977,126.994354 
z"/>
<path fill="#D6B8ED" opacity="1.000000" stroke="none" 
	d="
M44.999535,114.981239 
	C44.999451,111.500435 44.935490,108.510521 45.017635,105.524628 
	C45.096466,102.659203 45.174442,99.921288 40.067181,101.310539 
	C44.029373,98.855972 46.988075,97.023071 50.302853,94.969582 
	C50.742172,96.624451 51.140110,98.123436 51.574226,99.758713 
	C53.830990,99.909935 55.936913,100.051056 58.042831,100.192169 
	C58.054714,100.368660 58.066597,100.545143 58.078480,100.721626 
	C55.961807,100.908279 53.845135,101.094940 51.170307,101.330818 
	C51.366535,109.880196 49.771038,118.369316 52.578403,127.395958 
	C55.009880,126.317398 56.983181,125.442070 59.141144,124.484833 
	C57.713993,128.544678 54.862114,129.719162 49.254025,128.994247 
	C45.544605,128.514755 44.853931,126.106056 44.980495,122.943497 
	C45.079990,120.457359 44.999870,117.964027 44.999535,114.981239 
z"/>
<path fill="#D2B2E3" opacity="1.000000" stroke="none" 
	d="
M231.024124,127.438629 
	C229.088669,127.680099 227.153198,127.921570 225.011581,128.188766 
	C225.011581,123.581650 224.812088,119.339615 225.074722,115.126389 
	C225.284729,111.757416 223.952957,110.580795 220.543839,110.689293 
	C221.851974,108.954285 223.408813,107.537827 224.987091,105.783218 
	C224.321274,104.919594 223.672897,104.329826 222.937103,103.884529 
	C221.963882,103.295547 220.922241,102.819656 220.227676,102.129761 
	C222.783707,101.238319 225.151703,100.769753 227.229080,99.723938 
	C230.110672,98.273293 231.060532,99.469940 231.388657,102.515793 
	C231.251312,111.103645 231.137711,119.271141 231.024124,127.438629 
z"/>
<path fill="#D6BAEC" opacity="1.000000" stroke="none" 
	d="
M247.921539,126.893997 
	C245.984940,127.364090 244.048325,127.834175 241.977905,128.336746 
	C241.977905,122.683578 242.135071,117.734802 241.878906,112.807526 
	C241.805298,111.391640 240.538849,110.037781 239.545273,108.128983 
	C239.709854,107.359642 241.092377,104.753464 240.308762,103.476250 
	C239.523880,102.196953 236.575974,102.244713 234.243729,101.462044 
	C234.236572,100.454308 234.561813,99.695335 234.887054,98.936371 
	C238.157257,99.355873 241.427460,99.775368 245.101685,100.370918 
	C245.505722,100.546967 245.533386,100.634583 245.533386,100.634583 
	C245.533386,100.634583 245.898392,100.810539 245.988983,101.414108 
	C246.386032,107.355827 246.646225,112.697189 247.017166,118.030853 
	C247.223114,120.991882 247.614014,123.940041 247.921539,126.893997 
z"/>
<path fill="#38343B" opacity="1.000000" stroke="none" 
	d="
M163.994446,126.526505 
	C163.319138,125.597458 162.113220,124.206833 162.097290,122.802696 
	C161.946793,109.535698 161.998993,96.266388 162.042145,82.536758 
	C162.733871,84.143242 163.903748,86.203491 163.932175,88.279373 
	C164.104675,100.870491 164.016815,113.465164 163.994446,126.526505 
z"/>
<path fill="#EB97BD" opacity="1.000000" stroke="none" 
	d="
M197.928604,123.098656 
	C198.933212,123.659035 200.796707,124.196754 200.812180,124.783226 
	C201.009705,132.270035 200.942413,139.763809 200.942413,147.255829 
	C200.421280,147.259491 199.900131,147.263153 199.378998,147.266815 
	C199.378998,140.496872 199.378998,133.726929 199.378998,126.956985 
	C199.093979,126.924515 198.808960,126.892044 198.523941,126.859566 
	C197.625259,129.387329 196.726593,131.915085 195.827911,134.442841 
	C195.432175,134.389679 195.036438,134.336502 194.640717,134.283325 
	C194.958023,131.085495 195.275330,127.887657 195.693130,124.289307 
	C196.505280,123.625404 197.216934,123.362022 197.928604,123.098656 
z"/>
<path fill="#EDE0EB" opacity="1.000000" stroke="none" 
	d="
M219.910019,102.295151 
	C220.922241,102.819656 221.963882,103.295547 222.937103,103.884529 
	C223.672897,104.329826 224.321274,104.919594 224.648804,105.832336 
	C221.182922,108.030884 218.076797,109.842163 214.970657,111.653435 
	C209.139938,109.879868 213.616043,106.275665 213.773270,103.627319 
	C214.264328,104.473961 214.501694,105.176910 214.739059,105.879868 
	C216.462708,104.684967 218.186371,103.490059 219.910019,102.295151 
z"/>
<path fill="#EB97BD" opacity="1.000000" stroke="none" 
	d="
M202.012726,96.808182 
	C201.968384,98.768028 201.949081,100.258766 201.855804,101.744858 
	C201.839111,102.010948 201.516693,102.257851 200.654709,103.474121 
	C200.654709,91.424240 200.654709,80.298744 200.654709,69.173256 
	C200.848480,69.158813 201.042252,69.144363 201.236023,69.129921 
	C201.494843,78.199104 201.753662,87.268288 202.012726,96.808182 
z"/>
<path fill="#D6BAEC" opacity="1.000000" stroke="none" 
	d="
M200.197037,119.180000 
	C198.424377,115.823723 196.008942,112.515526 199.484436,108.778900 
	C205.036041,109.388420 205.706833,110.426170 203.687500,115.447845 
	C203.096817,116.916733 202.439850,118.358955 201.328613,119.738266 
	C200.705093,119.399300 200.489456,119.238251 200.197037,119.180000 
z"/>
<path fill="#33538D" opacity="1.000000" stroke="none" 
	d="
M220.227676,102.129753 
	C218.186371,103.490059 216.462708,104.684967 214.739059,105.879868 
	C214.501694,105.176910 214.264328,104.473961 214.072876,103.414017 
	C219.231018,101.061317 224.276535,98.855255 229.496674,97.199951 
	C231.033707,96.712555 233.065079,97.784058 234.878479,98.538757 
	C234.561813,99.695335 234.236572,100.454308 233.876785,101.547127 
	C233.411865,101.929070 232.981506,101.977150 232.105652,102.064835 
	C231.660156,102.104446 231.412399,102.095428 231.412399,102.095428 
	C231.060532,99.469940 230.110672,98.273293 227.229080,99.723938 
	C225.151703,100.769753 222.783707,101.238319 220.227676,102.129753 
z"/>
<path fill="#4B4352" opacity="1.000000" stroke="none" 
	d="
M290.031403,126.526932 
	C289.388245,125.301987 288.294617,123.625290 288.238495,121.914558 
	C287.998962,114.613213 288.066010,107.301804 288.036591,99.527359 
	C288.722900,100.180931 289.950958,101.289352 289.975098,102.423401 
	C290.142822,110.299133 290.060425,118.180183 290.031403,126.526932 
z"/>
<path fill="#2F2C32" opacity="1.000000" stroke="none" 
	d="
M178.969437,126.573517 
	C178.629333,125.315788 178.062164,123.659035 178.038956,121.994682 
	C177.859543,109.129791 177.785324,96.263428 177.298523,83.175392 
	C180.253586,80.786919 178.919876,84.049782 178.932861,84.905846 
	C179.048096,92.504578 179.000565,100.105789 178.999649,107.706268 
	C178.998901,113.861176 178.996185,120.016075 178.969437,126.573517 
z"/>
<path fill="#D4B7EB" opacity="1.000000" stroke="none" 
	d="
M255.339722,102.419243 
	C256.718506,102.374954 258.070038,102.386467 258.961151,103.032806 
	C259.542023,103.454132 259.471497,104.794456 259.660645,105.729599 
	C259.883118,106.829750 260.478760,108.762573 260.203278,108.898689 
	C258.985718,109.500275 257.404755,110.020370 256.169495,109.712013 
	C255.282410,109.490578 254.250458,107.958015 254.154129,106.928841 
	C254.027512,105.575935 254.756195,104.142990 255.339722,102.419243 
z"/>
<path fill="#33538D" opacity="1.000000" stroke="none" 
	d="
M199.973480,119.473679 
	C200.489456,119.238251 200.705093,119.399300 200.981110,119.818039 
	C200.109573,120.793541 199.100861,121.614151 198.010376,122.766708 
	C197.216934,123.362022 196.505280,123.625404 195.552017,124.025360 
	C191.090561,125.603493 186.870728,127.045052 182.650879,128.486618 
	C182.452271,127.946877 182.253662,127.407135 182.055054,126.867401 
	C187.953339,124.500717 193.851624,122.134033 199.973480,119.473679 
z"/>
<path fill="#2F2C32" opacity="1.000000" stroke="none" 
	d="
M304.965942,126.507187 
	C304.625488,125.475189 304.050964,123.979034 304.041107,122.479179 
	C303.956573,109.593590 303.974091,96.707336 303.847260,83.354568 
	C304.155548,83.955788 304.938538,85.021507 304.945099,86.091988 
	C305.026825,99.408028 304.995758,112.724747 304.965942,126.507187 
z"/>
<path fill="#8D7B99" opacity="1.000000" stroke="none" 
	d="
M33.307167,124.960205 
	C32.681763,124.035576 32.045475,122.977722 32.038521,121.915741 
	C31.966270,110.883202 31.972307,99.849846 32.041546,88.817253 
	C32.046864,87.969833 32.696236,87.126450 33.430290,86.209297 
	C33.807041,86.546783 33.799751,86.956161 33.522064,88.011963 
	C33.170441,95.073357 32.970020,101.489761 33.046040,107.902885 
	C33.105873,112.949745 33.506680,117.992577 33.756031,123.037193 
	C33.700165,123.633148 33.644295,124.229111 33.307167,124.960205 
z"/>
<path fill="#4B4352" opacity="1.000000" stroke="none" 
	d="
M231.388657,102.515793 
	C231.412399,102.095428 231.660156,102.104446 231.781799,102.089500 
	C231.871231,110.363846 231.839020,118.653137 231.415466,127.190536 
	C231.137711,119.271141 231.251312,111.103645 231.388657,102.515793 
z"/>
<path fill="#4FB5CF" opacity="1.000000" stroke="none" 
	d="
M208.014847,102.964569 
	C207.570786,103.157516 207.126724,103.350464 205.295151,104.146301 
	C209.604797,96.456490 213.330017,89.809441 217.055252,83.162392 
	C217.435410,83.363174 217.815582,83.563957 218.195740,83.764740 
	C215.099228,89.606186 212.002701,95.447632 208.952927,101.643356 
	C208.999664,101.997620 209.028290,101.969086 208.741638,101.991211 
	C208.291611,102.353455 208.128220,102.693581 207.973053,103.013290 
	C207.981262,102.992874 208.014847,102.964577 208.014847,102.964569 
z"/>
<path fill="#B1AFB1" opacity="1.000000" stroke="none" 
	d="
M33.846046,122.573456 
	C33.506680,117.992577 33.105873,112.949745 33.046040,107.902885 
	C32.970020,101.489761 33.170441,95.073357 33.476379,88.316406 
	C33.779411,99.352859 33.857735,110.731293 33.846046,122.573456 
z"/>
<path fill="#8670C9" opacity="1.000000" stroke="none" 
	d="
M194.084610,102.054459 
	C194.216537,103.226479 194.225311,104.041985 194.234100,104.857498 
	C193.459015,104.476883 192.266342,104.295433 191.974808,103.684181 
	C189.614182,98.734993 187.422699,93.705124 185.793228,88.314461 
	C188.515976,92.775627 191.238724,97.236794 194.084610,102.054459 
z"/>
<path fill="#D6B8ED" opacity="1.000000" stroke="none" 
	d="
M288.340942,86.026062 
	C288.252533,87.511620 287.844116,89.741966 287.588959,89.724564 
	C285.969208,89.614120 284.295105,89.179222 282.850494,88.438538 
	C282.504242,88.261002 282.879364,85.652527 283.057098,85.636314 
	C284.718628,85.484833 286.409485,85.654686 288.340942,86.026062 
z"/>
<path fill="#2F2C32" opacity="1.000000" stroke="none" 
	d="
M247.956711,126.432678 
	C247.614014,123.940041 247.223114,120.991882 247.017166,118.030853 
	C246.646225,112.697189 246.386032,107.355827 246.063370,101.602554 
	C246.698074,102.950287 247.848709,104.695877 247.910294,106.479088 
	C248.134506,112.969704 247.994553,119.472900 247.956711,126.432678 
z"/>
<path fill="#2F2C32" opacity="1.000000" stroke="none" 
	d="
M274.938385,126.538406 
	C274.284973,125.440277 273.147736,123.936241 273.092163,122.393234 
	C272.870758,116.248756 272.986450,110.092148 272.990936,103.471703 
	C273.336365,105.979736 273.742188,108.950127 273.982910,111.933830 
	C274.363953,116.656059 274.634399,121.387215 274.938385,126.538406 
z"/>
<path fill="#33538D" opacity="1.000000" stroke="none" 
	d="
M214.740082,111.814445 
	C218.076797,109.842163 221.182922,108.030884 224.627350,106.170486 
	C223.408813,107.537827 221.851974,108.954285 220.105255,110.653915 
	C218.317032,111.753052 216.718674,112.569031 214.686890,113.349045 
	C214.123306,113.161125 213.993149,113.009163 213.862976,112.857201 
	C214.078476,112.563286 214.293976,112.269371 214.740082,111.814445 
z"/>
<path fill="#33538D" opacity="1.000000" stroke="none" 
	d="
M214.422211,113.561279 
	C212.063385,115.065140 209.535812,116.320793 207.008255,117.576454 
	C206.815689,117.194366 206.623108,116.812279 206.430542,116.430199 
	C208.667206,115.269302 210.903854,114.108414 213.501740,112.902359 
	C213.993149,113.009163 214.123306,113.161125 214.422211,113.561279 
z"/>
<path fill="#8670C9" opacity="1.000000" stroke="none" 
	d="
M208.984238,102.010666 
	C210.112427,101.665550 211.256042,101.307388 212.399811,100.949760 
	C210.430237,104.965164 210.430237,104.965164 208.140045,103.309448 
	C208.014847,102.964577 207.981262,102.992874 208.301758,103.036293 
	C208.757614,102.709503 208.892960,102.339294 209.028290,101.969086 
	C209.028290,101.969086 208.999664,101.997620 208.984238,102.010666 
z"/>
<path fill="#8670C9" opacity="1.000000" stroke="none" 
	d="
M215.731232,98.813492 
	C216.163498,97.836952 216.915024,96.682564 217.666550,95.528183 
	C218.050217,95.832939 218.433899,96.137703 218.817566,96.442459 
	C217.895203,97.173523 216.972855,97.904579 215.731232,98.813492 
z"/>
<path fill="#8670C9" opacity="1.000000" stroke="none" 
	d="
M222.421753,93.532005 
	C221.523209,94.166901 220.624649,94.801804 219.726105,95.436699 
	C219.550049,95.233818 219.373978,95.030937 219.197922,94.828056 
	C219.884735,94.231339 220.571548,93.634628 221.715179,93.130547 
	C222.171982,93.223183 222.421753,93.532005 222.421753,93.532005 
z"/>
<path fill="#8670C9" opacity="1.000000" stroke="none" 
	d="
M222.048264,93.067825 
	C222.652695,92.271797 223.380859,91.631126 224.109024,90.990463 
	C224.304901,91.197685 224.500793,91.404907 224.696686,91.612137 
	C224.116348,92.161842 223.536011,92.711555 222.688721,93.396637 
	C222.421753,93.532005 222.171982,93.223183 222.048264,93.067825 
z"/>
<path fill="#2F2C32" opacity="1.000000" stroke="none" 
	d="
M245.555908,100.612488 
	C245.533386,100.634583 245.505722,100.546967 245.511383,100.524567 
	C245.517029,100.502167 245.578415,100.590393 245.555908,100.612488 
z"/>
<path fill="#D6B8ED" opacity="1.000000" stroke="none" 
	d="
M153.472107,128.425430 
	C153.546478,128.378754 153.571289,128.570511 153.571289,128.570511 
	C153.571289,128.570511 153.397720,128.472107 153.472107,128.425430 
z"/>
<path fill="#D6B8ED" opacity="1.000000" stroke="none" 
	d="
M296.061493,128.077026 
	C295.955780,128.122498 295.794922,128.107498 295.760010,127.998993 
	C295.885956,127.905495 296.006317,128.016525 296.061493,128.077026 
z"/>
<path fill="#FFFFFF" opacity="1.000000" stroke="none" 
	d="
M268.002930,117.290207 
	C268.003235,118.521645 268.039886,119.344002 267.994568,120.161804 
	C267.804565,123.589241 265.977112,126.045113 262.618073,125.642220 
	C261.592773,125.519234 260.267914,121.869308 260.358948,119.893539 
	C260.491150,117.024887 265.473114,113.697624 267.435272,114.641617 
	C267.879913,114.855537 267.825989,116.105804 268.002930,117.290207 
z"/>
<path fill="#FFFFFF" opacity="1.000000" stroke="none" 
	d="
M139.875122,100.135742 
	C141.981720,102.299721 143.711426,104.416840 146.336914,107.630386 
	C141.318466,107.630386 138.117111,107.630386 134.572525,107.630386 
	C132.883057,102.990540 135.669617,101.224297 139.875122,100.135742 
z"/>
<path fill="#FFFFFF" opacity="1.000000" stroke="none" 
	d="
M208.741638,101.991211 
	C208.892960,102.339294 208.757614,102.709503 208.293549,103.056709 
	C208.128220,102.693581 208.291611,102.353455 208.741638,101.991211 
z"/>
</svg>